P3
# CREATOR: GIMP PNM Filter Version 1.1
17 8
255
6
6
6
10
10
10
9
9
9
9
9
9
9
9
9
9
9
9
10
9
10
0
0
0
9
8
7
0
0
0
4
4
4
73
73
73
158
158
158
168
168
168
111
111
110
19
19
19
0
0
0
89
89
89
158
158
161
152
152
153
143
143
145
142
142
143
158
156
158
168
166
168
161
162
164
152
132
105
1
1
2
116
116
116
216
216
213
218
218
216
216
217
215
213
214
210
176
177
175
28
28
28
17
17
17
46
46
47
41
40
42
34
34
35
34
34
35
41
41
42
89
88
86
56
56
56
51
45
39
48
48
48
213
213
211
216
217
218
215
215
218
208
208
210
192
191
193
194
194
192
106
106
105
0
0
0
0
0
0
0
0
0
0
0
0
2
2
2
152
149
150
170
165
165
171
166
167
170
170
172
172
172
173
192
192
192
195
195
198
203
202
198
184
185
185
163
163
165
175
176
176
159
159
158
0
0
0
0
0
0
0
0
0
0
0
0
3
3
3
113
113
113
147
146
145
141
140
142
144
145
147
174
175
176
192
193
190
177
178
182
170
171
173
149
150
152
146
147
151
158
158
158
157
157
156
2
2
2
3
3
3
3
3
3
3
3
3
3
3
3
19
18
18
74
70
68
22
22
21
0
0
0
36
36
36
188
189
187
170
171
173
154
155
160
147
148
153
135
136
138
167
168
167
100
100
99
103
103
103
188
188
189
179
179
181
174
174
175
175
175
177
193
193
195
189
188
189
185
187
190
186
160
126
2
2
2
113
113
113
185
185
183
168
168
169
163
164
165
180
181
182
161
161
159
31
31
31
6
6
6
20
20
20
18
17
17
11
11
11
13
13
13
12
10
11
11
9
8
12
13
12
21
19
18
0
0
0
8
8
8
98
98
98
169
169
167
175
175
175
131
131
129
36
36
36
0
0
0
