P3
# CREATOR: GIMP PNM Filter Version 1.1
30 7
255
9
6
6
165
98
99
245
148
148
248
149
150
229
138
138
82
50
50
0
0
0
0
0
0
12
28
28
80
195
195
103
247
248
102
249
250
89
213
214
20
45
45
0
0
0
0
0
0
55
33
3
213
132
4
243
153
5
243
152
2
185
116
6
18
11
2
0
0
0
0
0
0
84
2
2
216
8
8
231
8
9
228
6
6
146
7
7
4
1
1
120
77
75
255
197
195
254
152
154
255
179
174
254
169
169
255
157
158
15
9
9
0
0
0
99
190
186
156
255
255
100
254
255
155
255
255
114
254
255
104
251
252
0
0
0
8
5
0
233
168
56
250
180
62
252
157
0
253
196
96
252
159
3
210
132
8
0
0
0
37
0
0
245
89
85
238
36
36
242
22
19
241
101
101
243
5
6
141
7
7
93
79
133
204
215
247
255
195
191
85
115
228
253
255
255
255
159
160
73
45
45
0
0
0
67
104
197
246
242
250
122
244
250
136
137
226
242
255
255
105
255
255
15
30
30
9
8
6
73
92
207
255
255
247
204
143
65
178
195
255
254
218
155
249
155
1
5
4
2
40
18
33
81
114
229
255
217
210
146
52
120
232
248
255
242
84
83
196
8
8
180
125
130
248
235
237
255
164
164
236
201
211
252
210
210
255
155
156
95
58
58
0
0
0
141
226
235
219
253
253
104
253
254
205
243
251
160
253
253
105
255
255
21
45
45
16
9
2
233
199
145
250
217
157
245
158
14
244
232
211
250
177
52
248
155
0
13
9
3
68
6
7
227
176
187
241
108
108
230
51
57
244
210
211
238
28
27
200
6
8
209
124
125
255
146
147
255
151
152
255
148
149
255
148
150
255
156
157
119
72
72
0
0
0
100
251
252
94
254
255
102
254
255
95
254
255
98
254
255
105
255
255
27
62
63
21
12
1
254
155
0
250
152
0
250
156
0
250
151
0
250
155
0
248
155
0
21
14
2
88
5
5
239
0
0
239
1
1
239
4
4
239
0
0
239
6
6
206
7
7
229
137
138
255
152
153
254
152
153
255
152
153
253
152
152
255
155
156
144
87
87
0
0
0
109
255
255
103
254
255
102
254
255
102
254
255
103
253
254
104
255
255
33
79
80
42
25
5
255
159
0
249
156
1
250
156
0
250
156
0
250
155
1
249
155
0
28
19
2
108
6
6
239
7
7
239
7
7
239
7
7
239
7
7
238
7
7
212
7
7
202
122
123
72
43
43
101
60
61
223
135
135
16
9
10
171
103
104
129
78
78
0
0
0
95
222
223
20
42
42
65
152
153
81
190
190
7
15
15
90
213
214
29
69
70
43
27
5
194
121
6
28
17
4
190
119
7
139
87
7
37
23
4
227
143
8
24
17
2
101
7
7
150
7
8
35
3
3
206
10
10
89
6
6
74
4
4
200
10
10
