P3
# CREATOR: GIMP PNM Filter Version 1.1
30 8
255
3
3
3
0
0
0
46
47
51
83
86
101
84
87
104
13
21
21
3
2
2
7
7
9
1
1
1
2
2
2
1
1
1
1
1
0
19
18
21
30
41
39
22
37
37
129
127
149
120
127
148
41
45
51
3
3
4
1
1
1
1
1
1
1
1
1
3
4
4
4
3
5
1
1
1
4
5
5
2
2
2
1
1
1
2
2
2
5
6
6
2
2
4
1
1
1
6
8
7
7
7
8
1
2
2
12
17
17
27
41
42
16
27
29
3
2
3
3
3
4
2
2
3
1
1
1
54
54
64
45
55
60
88
92
104
63
73
86
2
4
4
0
0
0
1
2
1
1
2
1
1
2
1
2
2
2
2
2
2
1
2
2
2
2
2
1
1
1
1
1
1
1
2
2
1
3
2
0
2
1
1
1
2
3
3
4
1
1
1
1
1
1
2
2
2
4
4
5
2
2
2
16
21
20
39
51
55
16
25
28
0
0
0
0
0
0
144
142
173
60
70
79
18
26
29
1
1
1
0
2
1
3
4
4
1
1
1
3
3
5
3
3
3
1
2
2
1
1
1
2
3
3
2
3
3
1
1
1
1
2
1
0
2
1
3
3
3
1
2
2
3
3
5
1
1
1
2
2
3
1
1
1
3
3
4
1
1
1
3
3
4
2
2
3
0
0
0
25
30
30
73
81
97
143
142
174
126
132
166
95
106
140
18
74
157
12
23
43
1
2
1
1
0
1
1
2
1
4
4
5
2
2
2
2
2
2
2
2
2
1
2
1
2
3
2
2
2
2
2
4
3
1
3
2
2
3
2
1
2
1
2
2
3
2
2
3
4
4
5
3
3
4
1
1
1
2
2
2
2
2
3
3
3
3
2
2
3
11
11
14
148
141
171
151
146
174
125
127
152
56
129
223
109
233
252
18
89
212
4
5
3
3
4
3
1
2
1
1
1
1
1
2
1
2
4
3
1
1
1
2
3
3
1
2
2
1
2
2
1
1
1
1
3
2
2
2
2
1
3
2
2
2
3
1
1
2
2
2
2
2
2
3
1
1
2
2
2
2
1
1
2
1
1
2
3
3
4
126
123
144
128
126
148
110
115
139
66
77
91
41
72
137
56
134
244
17
63
149
2
2
2
2
2
3
1
1
1
2
2
2
0
2
1
1
2
1
2
2
2
2
3
3
0
2
1
1
2
1
2
4
3
0
2
1
1
2
1
0
2
1
1
1
2
1
2
1
2
2
2
1
1
1
2
2
2
1
1
1
4
4
6
1
1
2
1
1
1
20
20
20
83
91
106
77
87
103
38
52
59
32
44
50
29
40
41
9
14
14
2
1
2
1
1
1
3
3
3
1
2
2
2
1
2
2
2
2
2
2
1
1
1
1
1
2
1
2
3
2
4
4
5
2
3
2
2
3
2
0
2
1
1
1
2
2
2
2
4
4
4
2
2
2
1
1
1
2
2
2
1
1
1
1
1
1
1
1
1
1
1
1
0
0
0
10
15
14
24
34
34
27
36
39
9
11
12
2
2
2
2
2
2
3
3
3
1
2
3
2
3
3
2
3
3
1
2
2
3
2
3
1
2
2
0
2
1
5
5
5
1
1
1
1
2
1
0
2
1
0
2
1
