P1
# CREATOR: GIMP PNM Filter Version 1.1
30 7
1100011110000111100001111110111000001100000011000000110010111001001110
0000111000001110100100000011000000110000001100100100000011000000110000
0011101011100000110000001100000011101001011011010100101101111011111111